{"title":"Chain of Command 2015 HDRip XviD AC3-EVO [TvMovieR]","uid":12385852,"size":1489176913,"categoryP":"video","categoryS":"movies","magnet":"?xt=urn:btih:af40043d16c212322096e414072c761c0dcb9ef0&amp;dn=Chain+of+Command+2015+HDRip+XviD+AC3-EVO+%5BTvMovieR%5D&amp;tr=udp%3A%2F%2Ftracker.openbittorrent.com%3A80&amp;tr=udp%3A%2F%2Fopen.demonii.com%3A1337&amp;tr=udp%3A%2F%2Ftracker.coppersurfer.tk%3A6969&amp;tr=udp%3A%2F%2Fexodus.desync.com%3A6969","seeders":0,"leechers":1,"uploader":"TvMovieR","files":4,"time":1441824426,"description":"Chain of Command 2015 HDRip XviD AC3-EVO [TvMovieR]\n\nScreens:\n &lt;a href=&quot;\nhttp://ultraimg.com/images/vlcsnap-2015-09-09-09h45m45s490.png&quot; rel=&quot;nofollow&quot; target=&quot;_NEW&quot;&gt;\nhttp://ultraimg.com/images/vlcsnap-2015-09-09-09h45m45s490.png&lt;/a&gt; &lt;a href=&quot;\nhttp://ultraimg.com/images/vlcsnap-2015-09-09-09h45m42s412.png&quot; rel=&quot;nofollow&quot; target=&quot;_NEW&quot;&gt;\nhttp://ultraimg.com/images/vlcsnap-2015-09-09-09h45m42s412.png&lt;/a&gt; &lt;a href=&quot;\nhttp://ultraimg.com/images/vlcsnap-2015-09-09-09h45m35s663.png&quot; rel=&quot;nofollow&quot; target=&quot;_NEW&quot;&gt;\nhttp://ultraimg.com/images/vlcsnap-2015-09-09-09h45m35s663.png&lt;/a&gt; &lt;a href=&quot;\nhttp://ultraimg.com/images/vlcsnap-2015-09-09-09h45m38s672.png&quot; rel=&quot;nofollow&quot; target=&quot;_NEW&quot;&gt;\nhttp://ultraimg.com/images/vlcsnap-2015-09-09-09h45m38s672.png&lt;/a&gt; &lt;a href=&quot;\nhttp://ultraimg.com/images/vlcsnap-2015-09-09-09h45m32s583.png&quot; rel=&quot;nofollow&quot; target=&quot;_NEW&quot;&gt;\nhttp://ultraimg.com/images/vlcsnap-2015-09-09-09h45m32s583.png&lt;/a&gt;\n\nFormat : AVI \nFormat/Info : Audio Video Interleave \nFile size : 1.37 GiB \nDuration : 1h 27mn \nOverall bit rate : 2 242 Kbps \nWriting library : VirtualDub build 32593/release \n\nVideo \nID : 0 \nFormat : MPEG-4 Visual \nFormat profile : Advanced Simple@L5 \nFormat settings, BVOP : 2 \nFormat settings, QPel : No \nFormat settings, GMC : No warppoints \nFormat settings, Matrix : Default (H.263) \nMuxing mode : Packed bitstream \nCodec ID : XVID \nCodec ID/Hint : XviD \nDuration : 1h 27mn \nBit rate : 1 849 Kbps \nWidth : 720 pixels \nHeight : 400 pixels \nDisplay aspect ratio : 16:9 \nFrame rate : 23.976 fps \nColor space : YUV \nChroma subsampling : 4:2:0 \nBit depth : 8 bits \nScan type : Progressive \nCompression mode : Lossy \nBits/(Pixel*Frame) : 0.268 \nStream size : 1.13 GiB (82%) \nWriting library : XviD 66 \n\nAudio \nID : 1 \nFormat : AC-3 \nFormat/Info : Audio Coding 3 \nMode extension : CM (complete main) \nFormat settings, Endianness : Big \nCodec ID : 2000 \nDuration : 1h 27mn \nBit rate mode : Constant \nBit rate : 384 Kbps \nChannel(s) : 6 channels \nChannel positions : Front: L C R, Side: L R, LFE \nSampling rate : 48.0 KHz \nCompression mode : Lossy \nStream size : 241 MiB (17%) \nAlignment : Aligned on interleaves \nInterleave, duration : 42 ms (1.00 video frame) \nInterleave, preload duratio : 512 ms","torrent":{"xt":"urn:btih:af40043d16c212322096e414072c761c0dcb9ef0","amp;dn":"Chain+of+Command+2015+HDRip+XviD+AC3-EVO+%5BTvMovieR%5D","amp;tr":["udp%3A%2F%2Ftracker.openbittorrent.com%3A80","udp%3A%2F%2Fopen.demonii.com%3A1337","udp%3A%2F%2Ftracker.coppersurfer.tk%3A6969","udp%3A%2F%2Fexodus.desync.com%3A6969"],"infoHash":"af40043d16c212322096e414072c761c0dcb9ef0","infoHashBuffer":{"type":"Buffer","data":[175,64,4,61,22,194,18,50,32,150,228,20,7,44,118,28,13,203,158,240]},"announce":[],"urlList":[]}}